<control>


default_path=Keys\Upright Nr1\


<global>




ampeg_attack=0.005


ampeg_release=1


ampeg_dynamic=1




volume=0




<group> //Begin Group 1




lorand=0.0 hirand=0.5


group_label=gr_1






<region>
sample=UR1_C1_pp_RR1.wav
lokey=24
hikey=27
pitch_keycenter=24
lovel=0
hivel=80
volume=32


<region>
sample=UR1_C2_pp_RR1.wav
lokey=34
hikey=39
pitch_keycenter=36
lovel=0
hivel=60
volume=32


<region>
sample=UR1_C3_pp_RR1.wav
lokey=46
hikey=51
pitch_keycenter=48
lovel=0
hivel=60
volume=32


<region>
sample=UR1_C4_pp_RR1.wav
lokey=58
hikey=63
pitch_keycenter=60
lovel=0
hivel=60
volume=32


<region>
sample=UR1_C5_pp_RR1.wav
lokey=70
hikey=75
pitch_keycenter=72
lovel=0
hivel=60
volume=32


<region>
sample=UR1_C6_pp_RR1.wav
lokey=82
hikey=87
pitch_keycenter=84
lovel=0
hivel=60
volume=32


<region>
sample=UR1_C7_pp_RR1.wav
lokey=94
hikey=99
pitch_keycenter=96
lovel=0
hivel=60
volume=32


<region>
sample=UR1_G1_pp_RR1.wav
lokey=28
hikey=33
pitch_keycenter=31
lovel=0
hivel=80
volume=32


<region>
sample=UR1_G2_pp_RR1.wav
lokey=40
hikey=45
pitch_keycenter=43
lovel=0
hivel=60
volume=32


<region>
sample=UR1_G3_pp_RR1.wav
lokey=52
hikey=57
pitch_keycenter=55
lovel=0
hivel=60
volume=32


<region>
sample=UR1_G4_pp_RR1.wav
lokey=64
hikey=69
pitch_keycenter=67
lovel=0
hivel=60
volume=32


<region>
sample=UR1_G5_pp_RR1.wav
lokey=76
hikey=81
pitch_keycenter=79
lovel=0
hivel=60
volume=32


<region>
sample=UR1_G6_pp_RR1.wav
lokey=88
hikey=93
pitch_keycenter=91
lovel=0
hivel=60
volume=32


<region>
sample=UR1_G7_pp_RR1.wav
lokey=100
hikey=103
pitch_keycenter=103
lovel=0
hivel=60
volume=32


<region>
sample=UR1_C2_mf_RR1.wav
lokey=34
hikey=39
pitch_keycenter=36
lovel=61
hivel=110
volume=12


<region>
sample=UR1_C3_mf_RR1.wav
lokey=46
hikey=51
pitch_keycenter=48
lovel=61
hivel=110
volume=12


<region>
sample=UR1_C4_mf_RR1.wav
lokey=58
hikey=63
pitch_keycenter=60
lovel=61
hivel=110
volume=12


<region>
sample=UR1_C5_mf_RR1.wav
lokey=70
hikey=75
pitch_keycenter=72
lovel=61
hivel=110
volume=12


<region>
sample=UR1_C6_mf_RR1.wav
lokey=82
hikey=87
pitch_keycenter=84
lovel=61
hivel=110
volume=12


<region>
sample=UR1_C7_mf_RR1.wav
lokey=94
hikey=99
pitch_keycenter=96
lovel=61
hivel=110
volume=12


<region>
sample=UR1_G1_mf_RR1.wav
lokey=28
hikey=33
pitch_keycenter=31
lovel=81
hivel=127
volume=12


<region>
sample=UR1_G2_mf_RR1.wav
lokey=40
hikey=45
pitch_keycenter=43
lovel=61
hivel=110
volume=12


<region>
sample=UR1_G3_mf_RR1.wav
lokey=52
hikey=57
pitch_keycenter=55
lovel=61
hivel=110
volume=12


<region>
sample=UR1_G4_mf_RR1.wav
lokey=64
hikey=69
pitch_keycenter=67
lovel=61
hivel=110
volume=12


<region>
sample=UR1_G5_mf_RR1.wav
lokey=76
hikey=81
pitch_keycenter=79
lovel=61
hivel=110
volume=12


<region>
sample=UR1_G6_mf_RR1.wav
lokey=88
hikey=93
pitch_keycenter=91
lovel=61
hivel=110
volume=12


<region>
sample=UR1_G7_mf_RR1.wav
lokey=100
hikey=103
pitch_keycenter=103
lovel=61
hivel=110
volume=12


<region>
sample=UR1_C1_f_RR1.wav
lokey=24
hikey=27
pitch_keycenter=24
lovel=81
hivel=127
volume=12


<region>
sample=UR1_C2_f_RR1.wav
lokey=34
hikey=39
pitch_keycenter=36
lovel=111
hivel=127
volume=2


<region>
sample=UR1_C3_f_RR1.wav
lokey=46
hikey=51
pitch_keycenter=48
lovel=111
hivel=127
volume=2


<region>
sample=UR1_C4_f_RR1.wav
lokey=58
hikey=63
pitch_keycenter=60
lovel=111
hivel=127
volume=2


<region>
sample=UR1_C5_f_RR1.wav
lokey=70
hikey=75
pitch_keycenter=72
lovel=111
hivel=127
volume=2


<region>
sample=UR1_C6_f_RR1.wav
lokey=82
hikey=87
pitch_keycenter=84
lovel=111
hivel=127
volume=2


<region>
sample=UR1_C7_f_RR1.wav
lokey=94
hikey=99
pitch_keycenter=96
lovel=111
hivel=127
volume=2


<region>
sample=UR1_G2_f_RR1.wav
lokey=40
hikey=45
pitch_keycenter=43
lovel=111
hivel=127
volume=2


<region>
sample=UR1_G3_f_RR1.wav
lokey=52
hikey=57
pitch_keycenter=55
lovel=111
hivel=127
volume=2


<region>
sample=UR1_G4_f_RR1.wav
lokey=64
hikey=69
pitch_keycenter=67
lovel=111
hivel=127
volume=2


<region>
sample=UR1_G5_f_RR1.wav
lokey=76
hikey=81
pitch_keycenter=79
lovel=111
hivel=127
volume=2


<region>
sample=UR1_G6_f_RR1.wav
lokey=88
hikey=93
pitch_keycenter=91
lovel=111
hivel=127
volume=2


<region>
sample=UR1_G7_f_RR1.wav
lokey=100
hikey=103
pitch_keycenter=103
lovel=111
hivel=127
volume=2


<group> //Begin Group 2




lorand=0.5 hirand=1.0


group_label=gr_2






<region>
sample=UR1_C1_pp_RR2.wav
lokey=24
hikey=27
pitch_keycenter=24
lovel=0
hivel=60
volume=32


<region>
sample=UR1_C2_pp_RR1.wav
lokey=34
hikey=39
pitch_keycenter=36
lovel=0
hivel=60
volume=32


<region>
sample=UR1_C3_pp_RR2.wav
lokey=46
hikey=51
pitch_keycenter=48
lovel=0
hivel=60
volume=32


<region>
sample=UR1_C4_pp_RR2.wav
lokey=58
hikey=63
pitch_keycenter=60
lovel=0
hivel=60
volume=32


<region>
sample=UR1_C5_pp_RR2.wav
lokey=70
hikey=75
pitch_keycenter=72
lovel=0
hivel=60
volume=32


<region>
sample=UR1_C6_pp_RR2.wav
lokey=82
hikey=87
pitch_keycenter=84
lovel=0
hivel=60
volume=32


<region>
sample=UR1_C7_pp_RR2.wav
lokey=94
hikey=99
pitch_keycenter=96
lovel=0
hivel=60
volume=32


<region>
sample=UR1_G1_pp_RR1.wav
lokey=28
hikey=33
pitch_keycenter=31
lovel=0
hivel=60
volume=32


<region>
sample=UR1_G2_pp_RR1.wav
lokey=40
hikey=45
pitch_keycenter=43
lovel=0
hivel=60
volume=32


<region>
sample=UR1_G3_pp_RR2.wav
lokey=52
hikey=57
pitch_keycenter=55
lovel=0
hivel=60
volume=32


<region>
sample=UR1_G4_pp_RR2.wav
lokey=64
hikey=69
pitch_keycenter=67
lovel=0
hivel=60
volume=32


<region>
sample=UR1_G5_pp_RR2.wav
lokey=76
hikey=81
pitch_keycenter=79
lovel=0
hivel=60
volume=32


<region>
sample=UR1_G6_pp_RR2.wav
lokey=88
hikey=93
pitch_keycenter=91
lovel=0
hivel=60
volume=32


<region>
sample=UR1_G7_pp_RR2.wav
lokey=100
hikey=103
pitch_keycenter=103
lovel=0
hivel=60
volume=32


<region>
sample=UR1_C1_mf_RR2.wav
lokey=24
hikey=27
pitch_keycenter=24
lovel=61
hivel=110
volume=12


<region>
sample=UR1_C2_mf_RR2.wav
lokey=34
hikey=39
pitch_keycenter=36
lovel=61
hivel=110
volume=12


<region>
sample=UR1_C3_mf_RR2.wav
lokey=46
hikey=51
pitch_keycenter=48
lovel=61
hivel=110
volume=12


<region>
sample=UR1_C4_mf_RR2.wav
lokey=58
hikey=63
pitch_keycenter=60
lovel=61
hivel=110
volume=12


<region>
sample=UR1_C5_mf_RR2.wav
lokey=70
hikey=75
pitch_keycenter=72
lovel=61
hivel=110
volume=12


<region>
sample=UR1_C6_mf_RR2.wav
lokey=82
hikey=87
pitch_keycenter=84
lovel=61
hivel=110
volume=12


<region>
sample=UR1_C7_mf_RR2.wav
lokey=94
hikey=99
pitch_keycenter=96
lovel=61
hivel=110
volume=12


<region>
sample=UR1_G1_mf_RR2.wav
lokey=28
hikey=33
pitch_keycenter=31
lovel=61
hivel=110
volume=12


<region>
sample=UR1_G2_mf_RR2.wav
lokey=40
hikey=45
pitch_keycenter=43
lovel=61
hivel=110
volume=12


<region>
sample=UR1_G3_mf_RR2.wav
lokey=52
hikey=57
pitch_keycenter=55
lovel=61
hivel=110
volume=12


<region>
sample=UR1_G4_mf_RR2.wav
lokey=64
hikey=69
pitch_keycenter=67
lovel=61
hivel=110
volume=12


<region>
sample=UR1_G5_mf_RR2.wav
lokey=76
hikey=81
pitch_keycenter=79
lovel=61
hivel=110
volume=12


<region>
sample=UR1_G6_mf_RR2.wav
lokey=88
hikey=93
pitch_keycenter=91
lovel=61
hivel=110
volume=12


<region>
sample=UR1_G7_mf_RR2.wav
lokey=100
hikey=103
pitch_keycenter=103
lovel=61
hivel=110
volume=12


<region>
sample=UR1_C1_f_RR2.wav
lokey=24
hikey=27
pitch_keycenter=24
lovel=111
hivel=127
volume=2


<region>
sample=UR1_C2_f_RR2.wav
lokey=34
hikey=39
pitch_keycenter=36
lovel=111
hivel=127
volume=2


<region>
sample=UR1_C3_f_RR2.wav
lokey=46
hikey=51
pitch_keycenter=48
lovel=111
hivel=127
volume=2


<region>
sample=UR1_C4_f_RR2.wav
lokey=58
hikey=63
pitch_keycenter=60
lovel=111
hivel=127
volume=2


<region>
sample=UR1_C5_f_RR2.wav
lokey=70
hikey=75
pitch_keycenter=72
lovel=111
hivel=127
volume=2


<region>
sample=UR1_C6_f_RR2.wav
lokey=82
hikey=87
pitch_keycenter=84
lovel=111
hivel=127
volume=2


<region>
sample=UR1_C7_f_RR2.wav
lokey=94
hikey=99
pitch_keycenter=96
lovel=111
hivel=127
volume=2


<region>
sample=UR1_G1_f_RR2.wav
lokey=28
hikey=33
pitch_keycenter=31
lovel=111
hivel=127
volume=2


<region>
sample=UR1_G2_f_RR2.wav
lokey=40
hikey=45
pitch_keycenter=43
lovel=111
hivel=127
volume=2


<region>
sample=UR1_G3_f_RR2.wav
lokey=52
hikey=57
pitch_keycenter=55
lovel=111
hivel=127
volume=2


<region>
sample=UR1_G4_f_RR2.wav
lokey=64
hikey=69
pitch_keycenter=67
lovel=111
hivel=127
volume=2


<region>
sample=UR1_G5_f_RR2.wav
lokey=76
hikey=81
pitch_keycenter=79
lovel=111
hivel=127
volume=2


<region>
sample=UR1_G6_f_RR2.wav
lokey=88
hikey=93
pitch_keycenter=91
lovel=111
hivel=127
volume=2


<region>
sample=UR1_G7_f_RR2.wav
lokey=100
hikey=103
pitch_keycenter=103
lovel=111
hivel=127
volume=2


